<mxfile host="Electron" agent="Mozilla/5.0 (Windows NT 10.0; Win64; x64) AppleWebKit/537.36 (KHTML, like Gecko) draw.io/26.0.16 Chrome/132.0.6834.196 Electron/34.2.0 Safari/537.36" version="26.0.16">
  <diagram name="第 1 页" id="Zwlq3nTx5SLvu15Wpgyj">
    <mxGraphModel dx="1754" dy="1029" grid="1" gridSize="10" guides="1" tooltips="1" connect="1" arrows="1" fold="1" page="1" pageScale="1" pageWidth="827" pageHeight="1169" math="0" shadow="0">
      <root>
        <mxCell id="0" />
        <mxCell id="1" parent="0" />
        <mxCell id="0qm7OWgMR4dI2R0myLZl-6" value="game.ts" style="swimlane;whiteSpace=wrap;html=1;movable=1;resizable=1;rotatable=1;deletable=1;editable=1;locked=0;connectable=1;fontStyle=1;fontFamily=Verdana;fillColor=none;swimlaneFillColor=none;" parent="1" vertex="1">
          <mxGeometry x="30" y="75" width="1580" height="1075" as="geometry" />
        </mxCell>
        <mxCell id="0qm7OWgMR4dI2R0myLZl-13" value="&lt;span style=&quot;color: rgba(0, 0, 0, 0); font-family: monospace; font-size: 0px; text-align: start; text-wrap-mode: nowrap;&quot;&gt;%3CmxGraphModel%3E%3Croot%3E%3CmxCell%20id%3D%220%22%2F%3E%3CmxCell%20id%3D%221%22%20parent%3D%220%22%2F%3E%3CmxCell%20id%3D%222%22%20value%3D%22Horizontal%20Container%22%20style%3D%22swimlane%3Bhorizontal%3D0%3BwhiteSpace%3Dwrap%3Bhtml%3D1%3B%22%20vertex%3D%221%22%20parent%3D%221%22%3E%3CmxGeometry%20x%3D%22620%22%20y%3D%22410%22%20width%3D%22200%22%20height%3D%22200%22%20as%3D%22geometry%22%2F%3E%3C%2FmxCell%3E%3C%2Froot%3E%3C%2FmxGraphMode&lt;/span&gt;" style="rounded=1;whiteSpace=wrap;html=1;arcSize=3;fillColor=#7EA6E0;strokeColor=#6c8ebf;strokeWidth=3;perimeterSpacing=0;opacity=60;shadow=0;glass=0;" parent="0qm7OWgMR4dI2R0myLZl-6" vertex="1">
          <mxGeometry x="20" y="35" width="1300" height="1020" as="geometry" />
        </mxCell>
        <mxCell id="0qm7OWgMR4dI2R0myLZl-17" value="&lt;span style=&quot;color: rgba(0, 0, 0, 0); font-family: monospace; font-size: 0px; text-align: start; text-wrap-mode: nowrap;&quot;&gt;%3CmxGraphModel%3E%3Croot%3E%3CmxCell%20id%3D%220%22%2F%3E%3CmxCell%20id%3D%221%22%20parent%3D%220%22%2F%3E%3CmxCell%20id%3D%222%22%20value%3D%22Horizontal%20Container%22%20style%3D%22swimlane%3Bhorizontal%3D0%3BwhiteSpace%3Dwrap%3Bhtml%3D1%3B%22%20vertex%3D%221%22%20parent%3D%221%22%3E%3CmxGeometry%20x%3D%22620%22%20y%3D%22410%22%20width%3D%22200%22%20height%3D%22200%22%20as%3D%22geometry%22%2F%3E%3C%2FmxCell%3E%3C%2Froot%3E%3C%2FmxGraphMode&lt;/span&gt;" style="rounded=1;whiteSpace=wrap;html=1;arcSize=3;fillColor=light-dark(#292d3e, #436697);strokeColor=#7EA6E0;strokeWidth=3;perimeterSpacing=0;shadow=0;glass=0;movable=1;resizable=1;rotatable=1;deletable=1;editable=1;locked=0;connectable=1;" parent="0qm7OWgMR4dI2R0myLZl-6" vertex="1">
          <mxGeometry x="40" y="90" width="790" height="955" as="geometry" />
        </mxCell>
        <mxCell id="0qm7OWgMR4dI2R0myLZl-14" value="&lt;font face=&quot;Garamond&quot;&gt;Construcion&lt;/font&gt;" style="text;html=1;align=center;verticalAlign=middle;whiteSpace=wrap;rounded=0;fontColor=#FFFFFF;fontSize=26;fontStyle=1;movable=0;resizable=0;rotatable=0;deletable=0;editable=0;locked=1;connectable=0;" parent="0qm7OWgMR4dI2R0myLZl-6" vertex="1">
          <mxGeometry x="20" y="35" width="160" height="65" as="geometry" />
        </mxCell>
        <mxCell id="0qm7OWgMR4dI2R0myLZl-16" value="" style="group;fillColor=none;movable=1;resizable=1;rotatable=1;deletable=1;editable=1;locked=0;connectable=1;" parent="0qm7OWgMR4dI2R0myLZl-6" vertex="1" connectable="0">
          <mxGeometry x="50" y="90" width="630" height="700" as="geometry" />
        </mxCell>
        <mxCell id="0qm7OWgMR4dI2R0myLZl-18" value="&lt;font face=&quot;Garamond&quot;&gt;World&lt;/font&gt;" style="text;html=1;align=center;verticalAlign=middle;whiteSpace=wrap;rounded=0;fontColor=#FFFFFF;fontSize=26;fontStyle=1;movable=0;resizable=0;rotatable=0;deletable=0;editable=0;locked=1;connectable=0;" parent="0qm7OWgMR4dI2R0myLZl-16" vertex="1">
          <mxGeometry width="110" height="50" as="geometry" />
        </mxCell>
        <mxCell id="0qm7OWgMR4dI2R0myLZl-64" value="&lt;div style=&quot;color: rgb(191, 199, 213); background-color: rgb(41, 45, 62); font-size: 14px; line-height: 19px; white-space: pre;&quot;&gt;&lt;div style=&quot;&quot;&gt;&lt;font face=&quot;Consolas, Courier New, monospace&quot;&gt;&lt;span style=&quot;color: rgb(199, 146, 234);&quot;&gt;[readonly]&lt;/span&gt;&lt;/font&gt;&lt;/div&gt;&lt;div style=&quot;&quot;&gt;&lt;font face=&quot;Consolas, Courier New, monospace&quot;&gt;id&lt;span style=&quot;color: rgb(137, 221, 255); font-style: italic;&quot;&gt;:&lt;/span&gt; &lt;span style=&quot;color: rgb(255, 203, 107); font-style: italic;&quot;&gt;string&lt;/span&gt; &lt;span style=&quot;color: rgb(199, 146, 234);&quot;&gt;=&lt;/span&gt; uuid&lt;span style=&quot;color: rgb(199, 146, 234);&quot;&gt;.&lt;/span&gt;&lt;span style=&quot;color: rgb(130, 170, 255); font-style: italic;&quot;&gt;v4&lt;/span&gt;();&lt;/font&gt;&lt;/div&gt;&lt;/div&gt;" style="text;html=1;align=left;verticalAlign=middle;whiteSpace=wrap;rounded=0;" parent="0qm7OWgMR4dI2R0myLZl-16" vertex="1">
          <mxGeometry x="10" y="90" width="180" height="40" as="geometry" />
        </mxCell>
        <mxCell id="0qm7OWgMR4dI2R0myLZl-66" value="&lt;div style=&quot;color: rgb(191, 199, 213); background-color: rgb(41, 45, 62); font-size: 14px; line-height: 19px; white-space: pre;&quot;&gt;&lt;div style=&quot;&quot;&gt;&lt;span style=&quot;font-family: Consolas, &amp;quot;Courier New&amp;quot;, monospace;&quot;&gt;tag&lt;/span&gt;&lt;span style=&quot;font-family: Consolas, &amp;quot;Courier New&amp;quot;, monospace; color: rgb(137, 221, 255); font-style: italic;&quot;&gt;:&lt;/span&gt;&lt;span style=&quot;font-family: Consolas, &amp;quot;Courier New&amp;quot;, monospace;&quot;&gt; &lt;/span&gt;&lt;span style=&quot;font-family: Consolas, &amp;quot;Courier New&amp;quot;, monospace; color: rgb(120, 204, 240); font-style: italic;&quot;&gt;Record&lt;/span&gt;&lt;span style=&quot;font-family: Consolas, &amp;quot;Courier New&amp;quot;, monospace;&quot;&gt;&amp;lt;&lt;/span&gt;&lt;span style=&quot;font-family: Consolas, &amp;quot;Courier New&amp;quot;, monospace; color: rgb(120, 204, 240); font-style: italic;&quot;&gt;K&lt;/span&gt;&lt;span style=&quot;font-family: Consolas, &amp;quot;Courier New&amp;quot;, monospace;&quot;&gt;, &lt;/span&gt;&lt;span style=&quot;font-family: Consolas, &amp;quot;Courier New&amp;quot;, monospace; color: rgb(120, 204, 240); font-style: italic;&quot;&gt;k&lt;/span&gt;&lt;span style=&quot;font-family: Consolas, &amp;quot;Courier New&amp;quot;, monospace;&quot;&gt;&amp;gt; &lt;/span&gt;&lt;span style=&quot;font-family: Consolas, &amp;quot;Courier New&amp;quot;, monospace; color: rgb(199, 146, 234);&quot;&gt;=&lt;/span&gt;&lt;span style=&quot;font-family: Consolas, &amp;quot;Courier New&amp;quot;, monospace;&quot;&gt; {};&lt;/span&gt;&lt;/div&gt;&lt;/div&gt;" style="text;html=1;align=left;verticalAlign=middle;whiteSpace=wrap;rounded=0;" parent="0qm7OWgMR4dI2R0myLZl-16" vertex="1">
          <mxGeometry x="10" y="150" width="190" height="20" as="geometry" />
        </mxCell>
        <mxCell id="0qm7OWgMR4dI2R0myLZl-65" value="&lt;div style=&quot;color: rgb(191, 199, 213); background-color: rgb(41, 45, 62); font-size: 14px; line-height: 19px; white-space: pre;&quot;&gt;&lt;div style=&quot;&quot;&gt;&lt;span style=&quot;font-family: Consolas, &amp;quot;Courier New&amp;quot;, monospace;&quot;&gt;name&lt;/span&gt;&lt;span style=&quot;font-family: Consolas, &amp;quot;Courier New&amp;quot;, monospace; color: rgb(137, 221, 255); font-style: italic;&quot;&gt;:&lt;/span&gt;&lt;span style=&quot;font-family: Consolas, &amp;quot;Courier New&amp;quot;, monospace;&quot;&gt; &lt;/span&gt;&lt;span style=&quot;font-family: Consolas, &amp;quot;Courier New&amp;quot;, monospace; color: rgb(255, 203, 107); font-style: italic;&quot;&gt;string&lt;/span&gt;&lt;span style=&quot;font-family: Consolas, &amp;quot;Courier New&amp;quot;, monospace;&quot;&gt; &lt;/span&gt;&lt;span style=&quot;font-family: Consolas, &amp;quot;Courier New&amp;quot;, monospace; color: rgb(199, 146, 234);&quot;&gt;=&lt;/span&gt;&lt;span style=&quot;font-family: Consolas, &amp;quot;Courier New&amp;quot;, monospace;&quot;&gt; &lt;/span&gt;&lt;span style=&quot;font-family: Consolas, &amp;quot;Courier New&amp;quot;, monospace; color: rgb(217, 245, 221);&quot;&gt;&quot;&quot;&lt;/span&gt;&lt;span style=&quot;font-family: Consolas, &amp;quot;Courier New&amp;quot;, monospace;&quot;&gt;;&lt;/span&gt;&lt;/div&gt;&lt;/div&gt;" style="text;html=1;align=left;verticalAlign=middle;whiteSpace=wrap;rounded=0;" parent="0qm7OWgMR4dI2R0myLZl-16" vertex="1">
          <mxGeometry x="10" y="130" width="146" height="20" as="geometry" />
        </mxCell>
        <mxCell id="0qm7OWgMR4dI2R0myLZl-79" value="&lt;div style=&quot;color: rgb(191, 199, 213); font-family: Consolas, &amp;quot;Courier New&amp;quot;, monospace; font-size: 14px; line-height: 19px; white-space: pre;&quot;&gt;&lt;span style=&quot;color: #c792ea;&quot;&gt;readonly&lt;/span&gt; starttime &lt;span style=&quot;color: #c792ea;&quot;&gt;=&lt;/span&gt; &lt;span style=&quot;color: #89ddff;&quot;&gt;new&lt;/span&gt; &lt;span style=&quot;color: #ffcb6b;&quot;&gt;Date&lt;/span&gt;()&lt;span style=&quot;color: #c792ea;&quot;&gt;.&lt;/span&gt;&lt;span style=&quot;color: #82aaff;font-style: italic;&quot;&gt;getMilliseconds&lt;/span&gt;();&lt;/div&gt;" style="text;html=1;align=center;verticalAlign=middle;whiteSpace=wrap;rounded=0;labelBackgroundColor=none;" parent="0qm7OWgMR4dI2R0myLZl-16" vertex="1">
          <mxGeometry x="10" y="170" width="390" height="20" as="geometry" />
        </mxCell>
        <mxCell id="0qm7OWgMR4dI2R0myLZl-41" value="&lt;span style=&quot;color: rgba(0, 0, 0, 0); font-family: monospace; font-size: 0px; text-align: start; text-wrap-mode: nowrap;&quot;&gt;%3CmxGraphModel%3E%3Croot%3E%3CmxCell%20id%3D%220%22%2F%3E%3CmxCell%20id%3D%221%22%20parent%3D%220%22%2F%3E%3CmxCell%20id%3D%222%22%20value%3D%22Horizontal%20Container%22%20style%3D%22swimlane%3Bhorizontal%3D0%3BwhiteSpace%3Dwrap%3Bhtml%3D1%3B%22%20vertex%3D%221%22%20parent%3D%221%22%3E%3CmxGeometry%20x%3D%22620%22%20y%3D%22410%22%20width%3D%22200%22%20height%3D%22200%22%20as%3D%22geometry%22%2F%3E%3C%2FmxCell%3E%3C%2Froot%3E%3C%2FmxGraphMode&lt;/span&gt;" style="rounded=1;whiteSpace=wrap;html=1;arcSize=3;fillColor=#7EA6E0;strokeColor=#6c8ebf;strokeWidth=3;perimeterSpacing=0;opacity=60;shadow=0;glass=0;movable=1;resizable=1;rotatable=1;deletable=1;editable=1;locked=0;connectable=1;" parent="0qm7OWgMR4dI2R0myLZl-6" vertex="1">
          <mxGeometry x="850" y="90" width="320" height="625" as="geometry" />
        </mxCell>
        <mxCell id="0qm7OWgMR4dI2R0myLZl-42" value="&lt;font face=&quot;Garamond&quot;&gt;World&lt;/font&gt;" style="text;html=1;align=center;verticalAlign=middle;whiteSpace=wrap;rounded=0;fontColor=#FFFFFF;fontSize=26;fontStyle=1" parent="0qm7OWgMR4dI2R0myLZl-6" vertex="1">
          <mxGeometry x="860" y="90" width="67.09796672828098" height="50" as="geometry" />
        </mxCell>
        <mxCell id="0qm7OWgMR4dI2R0myLZl-67" value="&lt;span style=&quot;color: rgba(0, 0, 0, 0); font-family: monospace; font-size: 0px; text-align: start; text-wrap-mode: nowrap;&quot;&gt;%3CmxGraphModel%3E%3Croot%3E%3CmxCell%20id%3D%220%22%2F%3E%3CmxCell%20id%3D%221%22%20parent%3D%220%22%2F%3E%3CmxCell%20id%3D%222%22%20value%3D%22Horizontal%20Container%22%20style%3D%22swimlane%3Bhorizontal%3D0%3BwhiteSpace%3Dwrap%3Bhtml%3D1%3B%22%20vertex%3D%221%22%20parent%3D%221%22%3E%3CmxGeometry%20x%3D%22620%22%20y%3D%22410%22%20width%3D%22200%22%20height%3D%22200%22%20as%3D%22geometry%22%2F%3E%3C%2FmxCell%3E%3C%2Froot%3E%3C%2FmxGraphMode&lt;/span&gt;" style="rounded=1;whiteSpace=wrap;html=1;arcSize=3;fillColor=light-dark(#3f4668, #436697);strokeColor=light-dark(#535A7F,#5C79A3);strokeWidth=3;perimeterSpacing=0;shadow=0;glass=0;movable=1;resizable=1;rotatable=1;deletable=1;editable=1;locked=0;connectable=1;" parent="0qm7OWgMR4dI2R0myLZl-6" vertex="1">
          <mxGeometry x="540" y="120" width="240" height="390" as="geometry" />
        </mxCell>
        <mxCell id="0qm7OWgMR4dI2R0myLZl-68" value="&lt;div style=&quot;font-family: Consolas, &amp;quot;Courier New&amp;quot;, monospace; font-weight: normal; font-size: 14px; line-height: 19px; white-space: pre;&quot;&gt;&lt;font style=&quot;color: rgb(255, 255, 255);&quot;&gt;Scenarios&lt;/font&gt;&lt;span style=&quot;background-color: transparent; color: rgb(137, 221, 255); font-style: italic;&quot;&gt;:&lt;/span&gt;&lt;font style=&quot;background-color: transparent;&quot; color=&quot;#bfc7d5&quot;&gt; &lt;/font&gt;&lt;span style=&quot;background-color: transparent; color: rgb(120, 204, 240); font-style: italic;&quot;&gt;Map&lt;/span&gt;&lt;font style=&quot;background-color: transparent;&quot; color=&quot;#bfc7d5&quot;&gt;&amp;lt;&lt;/font&gt;&lt;span style=&quot;background-color: transparent; color: rgb(120, 204, 240); font-style: italic;&quot;&gt;K&lt;/span&gt;&lt;font style=&quot;background-color: transparent;&quot; color=&quot;#bfc7d5&quot;&gt;, &lt;/font&gt;&lt;span style=&quot;background-color: transparent; color: rgb(120, 204, 240); font-style: italic;&quot;&gt;Scenario&lt;/span&gt;&lt;font style=&quot;background-color: transparent;&quot; color=&quot;#bfc7d5&quot;&gt;&amp;gt;&lt;/font&gt;&lt;/div&gt;" style="text;html=1;align=left;verticalAlign=middle;whiteSpace=wrap;rounded=0;fontColor=#FFFFFF;fontSize=26;fontStyle=1;labelBackgroundColor=none;" parent="0qm7OWgMR4dI2R0myLZl-6" vertex="1">
          <mxGeometry x="550" y="130" width="210" height="20" as="geometry" />
        </mxCell>
        <mxCell id="0qm7OWgMR4dI2R0myLZl-71" value="&lt;span style=&quot;color: rgba(0, 0, 0, 0); font-family: monospace; font-size: 0px; text-align: start; text-wrap-mode: nowrap;&quot;&gt;%3CmxGraphModel%3E%3Croot%3E%3CmxCell%20id%3D%220%22%2F%3E%3CmxCell%20id%3D%221%22%20parent%3D%220%22%2F%3E%3CmxCell%20id%3D%222%22%20value%3D%22Horizontal%20Container%22%20style%3D%22swimlane%3Bhorizontal%3D0%3BwhiteSpace%3Dwrap%3Bhtml%3D1%3B%22%20vertex%3D%221%22%20parent%3D%221%22%3E%3CmxGeometry%20x%3D%22620%22%20y%3D%22410%22%20width%3D%22200%22%20height%3D%22200%22%20as%3D%22geometry%22%2F%3E%3C%2FmxCell%3E%3C%2Froot%3E%3C%2FmxGraphMode&lt;/span&gt;" style="rounded=1;whiteSpace=wrap;html=1;arcSize=3;fillColor=light-dark(#6580b0, #436697);strokeColor=#6c8ebf;strokeWidth=3;perimeterSpacing=0;shadow=0;glass=0;movable=1;resizable=1;rotatable=1;deletable=1;editable=1;locked=0;connectable=1;" parent="0qm7OWgMR4dI2R0myLZl-6" vertex="1">
          <mxGeometry x="560" y="165" width="190" height="145" as="geometry" />
        </mxCell>
        <mxCell id="0qm7OWgMR4dI2R0myLZl-72" value="&lt;div&gt;&lt;span style=&quot;white-space: pre;&quot;&gt;&lt;font style=&quot;font-size: 13px; line-height: 100%;&quot;&gt;Scenario&lt;/font&gt;&lt;/span&gt;&lt;/div&gt;" style="text;html=1;align=left;verticalAlign=middle;whiteSpace=wrap;rounded=0;fontColor=#FFFFFF;fontSize=26;fontStyle=0;fontFamily=Georgia;" parent="0qm7OWgMR4dI2R0myLZl-6" vertex="1">
          <mxGeometry x="565" y="165" width="56" height="15" as="geometry" />
        </mxCell>
        <mxCell id="0qm7OWgMR4dI2R0myLZl-80" value="&lt;div style=&quot;color: rgb(191, 199, 213); background-color: rgb(41, 45, 62); font-family: Consolas, &amp;quot;Courier New&amp;quot;, monospace; font-size: 14px; line-height: 19px; white-space: pre;&quot;&gt;tick&lt;span style=&quot;color: #89ddff;font-style: italic;&quot;&gt;:&lt;/span&gt; &lt;span style=&quot;color: #ffcb6b;font-style: italic;&quot;&gt;number&lt;/span&gt; &lt;span style=&quot;color: #c792ea;&quot;&gt;=&lt;/span&gt; &lt;span style=&quot;color: #f78c6c;&quot;&gt;0&lt;/span&gt;;&lt;/div&gt;" style="text;html=1;align=left;verticalAlign=middle;whiteSpace=wrap;rounded=0;" parent="0qm7OWgMR4dI2R0myLZl-6" vertex="1">
          <mxGeometry x="60" y="285" width="140" height="20" as="geometry" />
        </mxCell>
        <mxCell id="0qm7OWgMR4dI2R0myLZl-81" value="&lt;span style=&quot;color: rgba(0, 0, 0, 0); font-family: monospace; font-size: 0px; text-align: start; text-wrap-mode: nowrap;&quot;&gt;%3CmxGraphModel%3E%3Croot%3E%3CmxCell%20id%3D%220%22%2F%3E%3CmxCell%20id%3D%221%22%20parent%3D%220%22%2F%3E%3CmxCell%20id%3D%222%22%20value%3D%22Horizontal%20Container%22%20style%3D%22swimlane%3Bhorizontal%3D0%3BwhiteSpace%3Dwrap%3Bhtml%3D1%3B%22%20vertex%3D%221%22%20parent%3D%221%22%3E%3CmxGeometry%20x%3D%22620%22%20y%3D%22410%22%20width%3D%22200%22%20height%3D%22200%22%20as%3D%22geometry%22%2F%3E%3C%2FmxCell%3E%3C%2Froot%3E%3C%2FmxGraphMode&lt;/span&gt;" style="rounded=1;whiteSpace=wrap;html=1;arcSize=3;fillColor=light-dark(#3f4668, #436697);strokeColor=light-dark(#535A7F,#5C79A3);strokeWidth=3;perimeterSpacing=0;shadow=0;glass=0;movable=1;resizable=1;rotatable=1;deletable=1;editable=1;locked=0;connectable=1;" parent="0qm7OWgMR4dI2R0myLZl-6" vertex="1">
          <mxGeometry x="62.5" y="825" width="447.5" height="210" as="geometry" />
        </mxCell>
        <mxCell id="0qm7OWgMR4dI2R0myLZl-82" value="&lt;div style=&quot;font-family: Consolas, &amp;quot;Courier New&amp;quot;, monospace; font-weight: normal; font-size: 14px; line-height: 19px; white-space: pre;&quot;&gt;&lt;div style=&quot;line-height: 19px;&quot;&gt;&lt;div style=&quot;line-height: 19px;&quot;&gt;&lt;font style=&quot;color: rgb(255, 255, 255);&quot;&gt;tickTimerList&lt;/font&gt;&lt;span style=&quot;color: rgb(137, 221, 255); font-style: italic;&quot;&gt;: &lt;/span&gt;&lt;/div&gt;&lt;div style=&quot;line-height: 19px;&quot;&gt;&lt;font color=&quot;#bfc7d5&quot;&gt;{ id&lt;/font&gt;&lt;span style=&quot;color: rgb(137, 221, 255); font-style: italic;&quot;&gt;:&lt;/span&gt;&lt;font color=&quot;#bfc7d5&quot;&gt; &lt;/font&gt;&lt;span style=&quot;color: rgb(120, 204, 240); font-style: italic;&quot;&gt;K&lt;/span&gt;&lt;font color=&quot;#bfc7d5&quot;&gt;; nextTickAt&lt;/font&gt;&lt;span style=&quot;color: rgb(137, 221, 255); font-style: italic;&quot;&gt;:&lt;/span&gt;&lt;font color=&quot;#bfc7d5&quot;&gt; &lt;/font&gt;&lt;span style=&quot;color: rgb(255, 203, 107); font-style: italic;&quot;&gt;number&lt;/span&gt;&lt;font color=&quot;#bfc7d5&quot;&gt;; body&lt;/font&gt;&lt;span style=&quot;color: rgb(137, 221, 255); font-style: italic;&quot;&gt;:&lt;/span&gt;&lt;font color=&quot;#bfc7d5&quot;&gt; &lt;/font&gt;&lt;span style=&quot;color: rgb(120, 204, 240); font-style: italic;&quot;&gt;Interval&lt;/span&gt;&lt;font color=&quot;#bfc7d5&quot;&gt; &lt;/font&gt;&lt;span style=&quot;color: rgb(137, 221, 255);&quot;&gt;|&lt;/span&gt;&lt;font color=&quot;#bfc7d5&quot;&gt; &lt;/font&gt;&lt;span style=&quot;color: rgb(120, 204, 240); font-style: italic;&quot;&gt;Event&lt;/span&gt;&lt;font color=&quot;#bfc7d5&quot;&gt; }[]&lt;/font&gt;&lt;/div&gt;&lt;/div&gt;&lt;/div&gt;" style="text;html=1;align=left;verticalAlign=middle;whiteSpace=wrap;rounded=0;fontColor=#FFFFFF;fontSize=26;fontStyle=1;labelBackgroundColor=none;" parent="0qm7OWgMR4dI2R0myLZl-6" vertex="1">
          <mxGeometry x="69" y="835" width="430" height="40" as="geometry" />
        </mxCell>
        <mxCell id="0qm7OWgMR4dI2R0myLZl-83" value="&lt;span style=&quot;color: rgba(0, 0, 0, 0); font-family: monospace; font-size: 0px; text-align: start; text-wrap-mode: nowrap;&quot;&gt;%3CmxGraphModel%3E%3Croot%3E%3CmxCell%20id%3D%220%22%2F%3E%3CmxCell%20id%3D%221%22%20parent%3D%220%22%2F%3E%3CmxCell%20id%3D%222%22%20value%3D%22Horizontal%20Container%22%20style%3D%22swimlane%3Bhorizontal%3D0%3BwhiteSpace%3Dwrap%3Bhtml%3D1%3B%22%20vertex%3D%221%22%20parent%3D%221%22%3E%3CmxGeometry%20x%3D%22620%22%20y%3D%22410%22%20width%3D%22200%22%20height%3D%22200%22%20as%3D%22geometry%22%2F%3E%3C%2FmxCell%3E%3C%2Froot%3E%3C%2FmxGraphMode&lt;/span&gt;" style="rounded=1;whiteSpace=wrap;html=1;arcSize=3;fillColor=light-dark(#6580b0, #436697);strokeColor=#6c8ebf;strokeWidth=3;perimeterSpacing=0;shadow=0;glass=0;movable=1;resizable=1;rotatable=1;deletable=1;editable=1;locked=0;connectable=1;" parent="0qm7OWgMR4dI2R0myLZl-6" vertex="1">
          <mxGeometry x="75" y="885" width="190" height="145" as="geometry" />
        </mxCell>
        <mxCell id="0qm7OWgMR4dI2R0myLZl-84" value="&lt;div&gt;&lt;span style=&quot;white-space: pre;&quot;&gt;&lt;font style=&quot;font-size: 13px; line-height: 100%;&quot;&gt;tesk&lt;/font&gt;&lt;/span&gt;&lt;/div&gt;" style="text;html=1;align=left;verticalAlign=middle;whiteSpace=wrap;rounded=0;fontColor=#FFFFFF;fontSize=26;fontStyle=0;fontFamily=Georgia;" parent="0qm7OWgMR4dI2R0myLZl-6" vertex="1">
          <mxGeometry x="80" y="885" width="56" height="15" as="geometry" />
        </mxCell>
        <mxCell id="0qm7OWgMR4dI2R0myLZl-69" value="&lt;span style=&quot;color: rgba(0, 0, 0, 0); font-family: monospace; font-size: 0px; text-align: start; text-wrap-mode: nowrap;&quot;&gt;%3CmxGraphModel%3E%3Croot%3E%3CmxCell%20id%3D%220%22%2F%3E%3CmxCell%20id%3D%221%22%20parent%3D%220%22%2F%3E%3CmxCell%20id%3D%222%22%20value%3D%22Horizontal%20Container%22%20style%3D%22swimlane%3Bhorizontal%3D0%3BwhiteSpace%3Dwrap%3Bhtml%3D1%3B%22%20vertex%3D%221%22%20parent%3D%221%22%3E%3CmxGeometry%20x%3D%22620%22%20y%3D%22410%22%20width%3D%22200%22%20height%3D%22200%22%20as%3D%22geometry%22%2F%3E%3C%2FmxCell%3E%3C%2Froot%3E%3C%2FmxGraphMode&lt;/span&gt;" style="rounded=1;whiteSpace=wrap;html=1;arcSize=3;fillColor=light-dark(#3f4668, #436697);strokeColor=light-dark(#535A7F,#5C79A3);strokeWidth=3;perimeterSpacing=0;shadow=0;glass=0;movable=1;resizable=1;rotatable=1;deletable=1;editable=1;locked=0;connectable=1;" parent="0qm7OWgMR4dI2R0myLZl-6" vertex="1">
          <mxGeometry x="530" y="545" width="250" height="330" as="geometry" />
        </mxCell>
        <mxCell id="0qm7OWgMR4dI2R0myLZl-70" value="&lt;div style=&quot;font-family: Consolas, &amp;quot;Courier New&amp;quot;, monospace; font-weight: normal; font-size: 14px; line-height: 19px; white-space: pre;&quot;&gt;&lt;div style=&quot;line-height: 19px;&quot;&gt;&lt;font style=&quot;color: rgb(255, 255, 255);&quot;&gt;Characters&lt;/font&gt;&lt;span style=&quot;color: rgb(137, 221, 255); font-style: italic;&quot;&gt;:&lt;/span&gt;&lt;font color=&quot;#bfc7d5&quot;&gt; &lt;/font&gt;&lt;span style=&quot;color: rgb(120, 204, 240); font-style: italic;&quot;&gt;Map&lt;/span&gt;&lt;font color=&quot;#bfc7d5&quot;&gt;&amp;lt;&lt;/font&gt;&lt;span style=&quot;color: rgb(120, 204, 240); font-style: italic;&quot;&gt;K&lt;/span&gt;&lt;font color=&quot;#bfc7d5&quot;&gt;, &lt;/font&gt;&lt;span style=&quot;color: rgb(120, 204, 240); font-style: italic;&quot;&gt;Character&lt;/span&gt;&lt;font color=&quot;#bfc7d5&quot;&gt;&amp;gt;&lt;/font&gt;&lt;/div&gt;&lt;/div&gt;" style="text;html=1;align=left;verticalAlign=middle;whiteSpace=wrap;rounded=0;fontColor=#FFFFFF;fontSize=26;fontStyle=1;labelBackgroundColor=none;" parent="0qm7OWgMR4dI2R0myLZl-6" vertex="1">
          <mxGeometry x="537.5" y="555" width="225" height="20" as="geometry" />
        </mxCell>
        <mxCell id="0qm7OWgMR4dI2R0myLZl-73" value="&lt;span style=&quot;color: rgba(0, 0, 0, 0); font-family: monospace; font-size: 0px; text-align: start; text-wrap-mode: nowrap;&quot;&gt;%3CmxGraphModel%3E%3Croot%3E%3CmxCell%20id%3D%220%22%2F%3E%3CmxCell%20id%3D%221%22%20parent%3D%220%22%2F%3E%3CmxCell%20id%3D%222%22%20value%3D%22Horizontal%20Container%22%20style%3D%22swimlane%3Bhorizontal%3D0%3BwhiteSpace%3Dwrap%3Bhtml%3D1%3B%22%20vertex%3D%221%22%20parent%3D%221%22%3E%3CmxGeometry%20x%3D%22620%22%20y%3D%22410%22%20width%3D%22200%22%20height%3D%22200%22%20as%3D%22geometry%22%2F%3E%3C%2FmxCell%3E%3C%2Froot%3E%3C%2FmxGraphMode&lt;/span&gt;" style="rounded=1;whiteSpace=wrap;html=1;arcSize=3;fillColor=light-dark(#6580b0, #436697);strokeColor=#6c8ebf;strokeWidth=3;perimeterSpacing=0;shadow=0;glass=0;movable=1;resizable=1;rotatable=1;deletable=1;editable=1;locked=0;connectable=1;" parent="0qm7OWgMR4dI2R0myLZl-6" vertex="1">
          <mxGeometry x="537.5" y="580" width="190" height="145" as="geometry" />
        </mxCell>
        <mxCell id="0qm7OWgMR4dI2R0myLZl-74" value="&lt;div&gt;&lt;span style=&quot;white-space: pre;&quot;&gt;&lt;font style=&quot;font-size: 13px; line-height: 100%;&quot;&gt;Character&lt;/font&gt;&lt;/span&gt;&lt;/div&gt;" style="text;html=1;align=left;verticalAlign=middle;whiteSpace=wrap;rounded=0;fontColor=#FFFFFF;fontSize=26;fontStyle=0;fontFamily=Georgia;" parent="0qm7OWgMR4dI2R0myLZl-6" vertex="1">
          <mxGeometry x="542.5" y="580" width="56" height="15" as="geometry" />
        </mxCell>
        <mxCell id="0qm7OWgMR4dI2R0myLZl-75" value="&lt;span style=&quot;color: rgba(0, 0, 0, 0); font-family: monospace; font-size: 0px; text-align: start; text-wrap-mode: nowrap;&quot;&gt;%3CmxGraphModel%3E%3Croot%3E%3CmxCell%20id%3D%220%22%2F%3E%3CmxCell%20id%3D%221%22%20parent%3D%220%22%2F%3E%3CmxCell%20id%3D%222%22%20value%3D%22Horizontal%20Container%22%20style%3D%22swimlane%3Bhorizontal%3D0%3BwhiteSpace%3Dwrap%3Bhtml%3D1%3B%22%20vertex%3D%221%22%20parent%3D%221%22%3E%3CmxGeometry%20x%3D%22620%22%20y%3D%22410%22%20width%3D%22200%22%20height%3D%22200%22%20as%3D%22geometry%22%2F%3E%3C%2FmxCell%3E%3C%2Froot%3E%3C%2FmxGraphMode&lt;/span&gt;" style="rounded=1;whiteSpace=wrap;html=1;arcSize=3;fillColor=light-dark(#3f4668, #436697);strokeColor=light-dark(#535A7F,#5C79A3);strokeWidth=3;perimeterSpacing=0;shadow=0;glass=0;movable=1;resizable=1;rotatable=1;deletable=1;editable=1;locked=0;connectable=1;" parent="0qm7OWgMR4dI2R0myLZl-6" vertex="1">
          <mxGeometry x="50" y="365" width="449" height="180" as="geometry" />
        </mxCell>
        <mxCell id="0qm7OWgMR4dI2R0myLZl-76" value="&lt;div style=&quot;font-family: Consolas, &amp;quot;Courier New&amp;quot;, monospace; font-weight: normal; font-size: 14px; line-height: 19px; white-space: pre;&quot;&gt;&lt;div style=&quot;line-height: 19px;&quot;&gt;&lt;div style=&quot;line-height: 19px;&quot;&gt;&lt;font style=&quot;color: rgb(255, 255, 255);&quot;&gt;eventList&lt;span style=&quot;font-style: italic; color: rgb(137, 221, 255);&quot;&gt;:&lt;/span&gt;&lt;/font&gt;&lt;font color=&quot;#bfc7d5&quot;&gt; &lt;/font&gt;&lt;span style=&quot;color: rgb(120, 204, 240); font-style: italic;&quot;&gt;NestedObject_partial&lt;/span&gt;&lt;font color=&quot;#bfc7d5&quot;&gt;&amp;lt;&lt;/font&gt;&lt;span style=&quot;color: rgb(255, 203, 107); font-style: italic;&quot;&gt;string&lt;/span&gt;&lt;font color=&quot;#bfc7d5&quot;&gt;, &lt;/font&gt;&lt;span style=&quot;color: rgb(120, 204, 240); font-style: italic;&quot;&gt;Event&lt;/span&gt;&lt;font color=&quot;#bfc7d5&quot;&gt; &lt;/font&gt;&lt;span style=&quot;color: rgb(137, 221, 255);&quot;&gt;|&lt;/span&gt;&lt;font color=&quot;#bfc7d5&quot;&gt; &lt;/font&gt;&lt;span style=&quot;color: rgb(120, 204, 240); font-style: italic;&quot;&gt;Event&lt;/span&gt;&lt;font color=&quot;#bfc7d5&quot;&gt;[]&amp;gt;&lt;/font&gt;&lt;/div&gt;&lt;/div&gt;&lt;/div&gt;" style="text;html=1;align=left;verticalAlign=middle;whiteSpace=wrap;rounded=0;fontColor=#FFFFFF;fontSize=26;fontStyle=1;labelBackgroundColor=none;" parent="0qm7OWgMR4dI2R0myLZl-6" vertex="1">
          <mxGeometry x="57.5" y="375" width="432.5" height="20" as="geometry" />
        </mxCell>
        <mxCell id="0qm7OWgMR4dI2R0myLZl-77" value="&lt;span style=&quot;color: rgba(0, 0, 0, 0); font-family: monospace; font-size: 0px; text-align: start; text-wrap-mode: nowrap;&quot;&gt;%3CmxGraphModel%3E%3Croot%3E%3CmxCell%20id%3D%220%22%2F%3E%3CmxCell%20id%3D%221%22%20parent%3D%220%22%2F%3E%3CmxCell%20id%3D%222%22%20value%3D%22Horizontal%20Container%22%20style%3D%22swimlane%3Bhorizontal%3D0%3BwhiteSpace%3Dwrap%3Bhtml%3D1%3B%22%20vertex%3D%221%22%20parent%3D%221%22%3E%3CmxGeometry%20x%3D%22620%22%20y%3D%22410%22%20width%3D%22200%22%20height%3D%22200%22%20as%3D%22geometry%22%2F%3E%3C%2FmxCell%3E%3C%2Froot%3E%3C%2FmxGraphMode&lt;/span&gt;" style="rounded=1;whiteSpace=wrap;html=1;arcSize=3;fillColor=light-dark(#6580b0, #436697);strokeColor=#6c8ebf;strokeWidth=3;perimeterSpacing=0;shadow=0;glass=0;movable=1;resizable=1;rotatable=1;deletable=1;editable=1;locked=0;connectable=1;" parent="0qm7OWgMR4dI2R0myLZl-6" vertex="1">
          <mxGeometry x="57.5" y="400" width="181.5" height="135" as="geometry" />
        </mxCell>
        <mxCell id="0qm7OWgMR4dI2R0myLZl-78" value="&lt;div&gt;&lt;span style=&quot;white-space: pre;&quot;&gt;&lt;font style=&quot;font-size: 13px; line-height: 100%;&quot;&gt;ev&lt;/font&gt;&lt;/span&gt;&lt;/div&gt;" style="text;html=1;align=left;verticalAlign=middle;whiteSpace=wrap;rounded=0;fontColor=#FFFFFF;fontSize=26;fontStyle=0;fontFamily=Georgia;" parent="0qm7OWgMR4dI2R0myLZl-6" vertex="1">
          <mxGeometry x="62.5" y="400" width="56" height="15" as="geometry" />
        </mxCell>
        <mxCell id="_E24YtaWlEt-jlVe1e-d-2" value="&lt;span style=&quot;color: rgba(0, 0, 0, 0); font-family: monospace; font-size: 0px; text-align: start; text-wrap-mode: nowrap;&quot;&gt;%3CmxGraphModel%3E%3Croot%3E%3CmxCell%20id%3D%220%22%2F%3E%3CmxCell%20id%3D%221%22%20parent%3D%220%22%2F%3E%3CmxCell%20id%3D%222%22%20value%3D%22Horizontal%20Container%22%20style%3D%22swimlane%3Bhorizontal%3D0%3BwhiteSpace%3Dwrap%3Bhtml%3D1%3B%22%20vertex%3D%221%22%20parent%3D%221%22%3E%3CmxGeometry%20x%3D%22620%22%20y%3D%22410%22%20width%3D%22200%22%20height%3D%22200%22%20as%3D%22geometry%22%2F%3E%3C%2FmxCell%3E%3C%2Froot%3E%3C%2FmxGraphMode&lt;/span&gt;" style="rounded=1;whiteSpace=wrap;html=1;arcSize=3;fillColor=light-dark(#688fcf, #436697);strokeColor=light-dark(#535a7f, #ededed);strokeWidth=3;perimeterSpacing=0;shadow=0;glass=0;movable=1;resizable=1;rotatable=1;deletable=1;editable=1;locked=0;connectable=1;" vertex="1" parent="0qm7OWgMR4dI2R0myLZl-6">
          <mxGeometry x="537.5" y="946.6900000000002" width="280" height="83.31" as="geometry" />
        </mxCell>
        <mxCell id="_E24YtaWlEt-jlVe1e-d-16" value="&lt;span style=&quot;color: rgba(0, 0, 0, 0); font-family: monospace; font-size: 0px; text-align: start; text-wrap-mode: nowrap;&quot;&gt;%3CmxGraphModel%3E%3Croot%3E%3CmxCell%20id%3D%220%22%2F%3E%3CmxCell%20id%3D%221%22%20parent%3D%220%22%2F%3E%3CmxCell%20id%3D%222%22%20value%3D%22Horizontal%20Container%22%20style%3D%22swimlane%3Bhorizontal%3D0%3BwhiteSpace%3Dwrap%3Bhtml%3D1%3B%22%20vertex%3D%221%22%20parent%3D%221%22%3E%3CmxGeometry%20x%3D%22620%22%20y%3D%22410%22%20width%3D%22200%22%20height%3D%22200%22%20as%3D%22geometry%22%2F%3E%3C%2FmxCell%3E%3C%2Froot%3E%3C%2FmxGraphMode&lt;/span&gt;" style="rounded=1;whiteSpace=wrap;html=1;arcSize=3;fillColor=light-dark(#3f4668, #436697);strokeColor=none;strokeWidth=2;perimeterSpacing=0;shadow=0;glass=0;movable=1;resizable=1;rotatable=1;deletable=1;editable=1;locked=0;connectable=1;" vertex="1" parent="0qm7OWgMR4dI2R0myLZl-6">
          <mxGeometry x="543.88" y="953.3399999999999" width="267.25" height="70" as="geometry" />
        </mxCell>
        <mxCell id="_E24YtaWlEt-jlVe1e-d-4" value="&lt;div style=&quot;font-family: Consolas, &amp;quot;Courier New&amp;quot;, monospace; font-size: 14px; line-height: 19px; white-space: pre;&quot;&gt;&lt;span style=&quot;font-style: italic;&quot;&gt;&lt;font style=&quot;color: light-dark(rgb(255, 255, 255), rgb(61, 95, 168));&quot;&gt;spawn&lt;/font&gt;&lt;/span&gt;&lt;/div&gt;" style="text;html=1;align=center;verticalAlign=middle;whiteSpace=wrap;rounded=0;labelBackgroundColor=none;" vertex="1" parent="0qm7OWgMR4dI2R0myLZl-6">
          <mxGeometry x="543.88" y="953.3399999999999" width="59.57554903007653" height="25.44" as="geometry" />
        </mxCell>
        <mxCell id="_E24YtaWlEt-jlVe1e-d-7" value="" style="ellipse;whiteSpace=wrap;html=1;aspect=fixed;fillColor=none;strokeColor=#FFFF99;gradientColor=none;strokeWidth=2;shadow=1;shadowColor=#FBFF6F;shadowOpacity=80;shadowOffsetX=0;shadowOffsetY=0;shadowBlur=2;" vertex="1" parent="0qm7OWgMR4dI2R0myLZl-6">
          <mxGeometry x="794.6614140797805" y="965.3377777777778" width="7.940596285160311" height="7.940596285160311" as="geometry" />
        </mxCell>
        <mxCell id="_E24YtaWlEt-jlVe1e-d-3" value="&lt;div style=&quot;font-family: Consolas, &amp;quot;Courier New&amp;quot;, monospace; font-size: 14px; line-height: 19px; white-space: pre; color: rgb(191, 199, 213);&quot;&gt;&lt;span style=&quot;color: rgb(121, 134, 231);&quot;&gt;entity&lt;/span&gt;&lt;span style=&quot;color: rgb(137, 221, 255); font-style: italic;&quot;&gt;:&lt;/span&gt;&lt;font color=&quot;#bfc7d5&quot;&gt; &lt;/font&gt;&lt;font color=&quot;#78ccf0&quot;&gt;&lt;i&gt;Entity&lt;/i&gt;&lt;/font&gt;&lt;/div&gt;" style="text;html=1;align=center;verticalAlign=middle;whiteSpace=wrap;rounded=0;" vertex="1" parent="0qm7OWgMR4dI2R0myLZl-6">
          <mxGeometry x="681.2644474105713" y="987.6299999999999" width="102.44349528385834" height="15.39" as="geometry" />
        </mxCell>
        <mxCell id="_E24YtaWlEt-jlVe1e-d-8" value="&lt;div style=&quot;color: rgb(191, 199, 213); font-family: Consolas, &amp;quot;Courier New&amp;quot;, monospace; font-size: 14px; line-height: 19px; white-space: pre;&quot;&gt;&lt;span&gt;&lt;span style=&quot;color: rgb(121, 134, 231);&quot;&gt;atTransfer&lt;/span&gt;&lt;span style=&quot;color: rgb(137, 221, 255); font-style: italic;&quot;&gt;:&lt;/span&gt; &lt;span style=&quot;color: rgb(120, 204, 240); font-style: italic;&quot;&gt;Transfer&lt;/span&gt;&lt;/span&gt;&lt;/div&gt;" style="text;html=1;align=center;verticalAlign=middle;whiteSpace=wrap;rounded=0;glass=0;" vertex="1" parent="0qm7OWgMR4dI2R0myLZl-6">
          <mxGeometry x="644.01226730735" y="959.49" width="139.69567538707955" height="20.22" as="geometry" />
        </mxCell>
        <mxCell id="_E24YtaWlEt-jlVe1e-d-17" value="" style="ellipse;whiteSpace=wrap;html=1;aspect=fixed;fillColor=none;strokeColor=#FFFF99;gradientColor=none;strokeWidth=2;shadow=1;shadowColor=#FBFF6F;shadowOpacity=80;shadowOffsetX=0;shadowOffsetY=0;shadowBlur=2;" vertex="1" parent="0qm7OWgMR4dI2R0myLZl-6">
          <mxGeometry x="794.6614140797805" y="991.0577777777778" width="7.940596285160311" height="7.940596285160311" as="geometry" />
        </mxCell>
      </root>
    </mxGraphModel>
  </diagram>
</mxfile>
